<svg xmlns="http://www.w3.org/2000/svg" width="820" height="394" viewBox="0 0 820 394" font-family="ui-monospace, SFMono-Regular, Menlo, Consolas, 'Liberation Mono', monospace">
<rect width="820" height="394" rx="12" fill="#0d1117"/>
<text x="24" y="32" font-size="16" font-weight="600" fill="#0ea5e9">Item WPA · The Doorman</text>
<text x="24" y="52" font-size="11" fill="#8b949e">top 2 items per cost tier by mean win-probability added per purchase (pp) · Phantom · n ≥ 250</text>
<line x1="304.5" y1="66" x2="304.5" y2="350" stroke="#1e3a5f" stroke-width="1" stroke-dasharray="2 4"/>
<line x1="395.0" y1="66" x2="395.0" y2="350" stroke="#1e3a5f" stroke-width="1" stroke-dasharray="2 4"/>
<line x1="485.5" y1="66" x2="485.5" y2="350" stroke="#1e3a5f" stroke-width="1" stroke-dasharray="2 4"/>
<line x1="576.0" y1="66" x2="576.0" y2="350" stroke="#1e3a5f" stroke-width="1" stroke-dasharray="2 4"/>
<text x="24" y="95.0" font-size="13" fill="#c9d1d9">Healing Rite</text>
<rect x="214" y="82" width="39.8" height="18" rx="4" fill="#0ea5e9"/>
<text x="261.8" y="95.0" font-size="12" font-weight="600" fill="#c9d1d9">+0.44 pp</text>
<text x="796" y="95.0" font-size="11" text-anchor="end" fill="#8b949e">T1 · n=752</text>
<text x="24" y="129.0" font-size="13" fill="#c9d1d9">Extra Charge</text>
<rect x="214" y="116" width="21.9" height="18" rx="4" fill="#0ea5e9"/>
<text x="243.9" y="129.0" font-size="12" font-weight="600" fill="#c9d1d9">+0.24 pp</text>
<text x="796" y="129.0" font-size="11" text-anchor="end" fill="#8b949e">T1 · n=3.1k</text>
<line x1="24" y1="142" x2="796" y2="142" stroke="#1e3a5f" stroke-width="1"/>
<text x="24" y="163.0" font-size="13" fill="#c9d1d9">Spirit Shielding</text>
<rect x="214" y="150" width="179.3" height="18" rx="4" fill="#0ea5e9"/>
<text x="401.3" y="163.0" font-size="12" font-weight="600" fill="#c9d1d9">+1.99 pp</text>
<text x="796" y="163.0" font-size="11" text-anchor="end" fill="#8b949e">T2 · n=255</text>
<text x="24" y="197.0" font-size="13" fill="#c9d1d9">Debuff Reducer</text>
<rect x="214" y="184" width="176.3" height="18" rx="4" fill="#0ea5e9"/>
<text x="398.3" y="197.0" font-size="12" font-weight="600" fill="#c9d1d9">+1.96 pp</text>
<text x="796" y="197.0" font-size="11" text-anchor="end" fill="#8b949e">T2 · n=669</text>
<line x1="24" y1="210" x2="796" y2="210" stroke="#1e3a5f" stroke-width="1"/>
<text x="24" y="231.0" font-size="13" fill="#c9d1d9">Heroic Aura</text>
<rect x="214" y="218" width="341.9" height="18" rx="4" fill="#0ea5e9"/>
<text x="563.9" y="231.0" font-size="12" font-weight="600" fill="#c9d1d9">+3.80 pp</text>
<text x="796" y="231.0" font-size="11" text-anchor="end" fill="#8b949e">T3 · n=478</text>
<text x="24" y="265.0" font-size="13" fill="#c9d1d9">Surge of Power</text>
<rect x="214" y="252" width="226.6" height="18" rx="4" fill="#0ea5e9"/>
<text x="448.6" y="265.0" font-size="12" font-weight="600" fill="#c9d1d9">+2.52 pp</text>
<text x="796" y="265.0" font-size="11" text-anchor="end" fill="#8b949e">T3 · n=726</text>
<line x1="24" y1="278" x2="796" y2="278" stroke="#1e3a5f" stroke-width="1"/>
<text x="24" y="299.0" font-size="13" fill="#c9d1d9">Spirit Burn</text>
<rect x="214" y="286" width="362.0" height="18" rx="4" fill="#0ea5e9"/>
<text x="584.0" y="299.0" font-size="12" font-weight="600" fill="#c9d1d9">+4.02 pp</text>
<text x="796" y="299.0" font-size="11" text-anchor="end" fill="#8b949e">T4 · n=2.7k</text>
<text x="24" y="333.0" font-size="13" fill="#c9d1d9">Echo Shard</text>
<rect x="214" y="320" width="360.5" height="18" rx="4" fill="#0ea5e9"/>
<text x="582.5" y="333.0" font-size="12" font-weight="600" fill="#c9d1d9">+4.00 pp</text>
<text x="796" y="333.0" font-size="11" text-anchor="end" fill="#8b949e">T4 · n=421</text>
<line x1="24" y1="356" x2="796" y2="356" stroke="#1e3a5f" stroke-width="1"/>
<text x="24" y="378" font-size="11" fill="#8b949e">statlocker.gg/items/meta-model · LightGBM WP model, bias-corrected per-item WPA</text>
<text x="796" y="378" font-size="11" text-anchor="end" fill="#8b949e">updated 2026-08-24</text>
</svg>